<?xml version="1.0" standalone="no"?>
<!DOCTYPE svg PUBLIC "-//W3C//DTD SVG 20010904//EN"
 "http://www.w3.org/TR/2001/REC-SVG-20010904/DTD/svg10.dtd">
<svg version="1.0" xmlns="http://www.w3.org/2000/svg"
 width="619.000000pt" height="241.000000pt" viewBox="0 0 619.000000 241.000000"
 preserveAspectRatio="xMidYMid meet">

<g transform="translate(0.000000,241.000000) scale(0.100000,-0.100000)"
fill="#000000" stroke="none">
<path d="M5320 2019 c-169 -29 -280 -140 -280 -285 0 -71 34 -148 83 -190 46
-39 159 -89 257 -114 141 -35 178 -50 205 -81 29 -35 31 -58 9 -100 -18 -36
-67 -59 -124 -59 -81 0 -141 44 -165 121 l-13 44 -73 -3 c-41 -1 -107 -5 -147
-8 l-74 -6 7 -36 c21 -113 89 -214 174 -256 130 -65 364 -72 514 -16 74 28
149 96 184 168 24 48 28 69 28 137 0 67 -5 88 -27 131 -51 98 -138 145 -370
204 -116 29 -156 43 -170 60 -25 31 -23 47 12 82 29 29 34 30 95 26 54 -3 69
-9 94 -32 15 -15 33 -42 38 -59 8 -29 12 -32 43 -30 19 1 85 5 146 9 l111 6
-9 40 c-23 102 -83 181 -168 217 -88 38 -252 51 -380 30z"/>
<path d="M220 1510 l0 -500 155 0 155 0 0 123 0 122 83 82 82 82 104 -204 105
-205 188 0 c103 0 188 2 188 4 0 2 -85 143 -190 312 l-189 309 122 125 c67 69
149 153 182 188 l59 62 -205 0 -205 0 -160 -187 -159 -188 -3 188 -2 187 -155
0 -155 0 0 -500z"/>
<path d="M1480 1518 c-102 -270 -186 -495 -188 -500 -2 -4 68 -8 155 -8 l158
0 19 68 c32 112 12 103 209 100 l172 -3 26 -80 25 -80 162 -3 162 -2 -18 47
c-10 27 -94 252 -187 501 l-170 452 -170 0 -170 0 -185 -492z m404 65 c27 -87
51 -166 53 -175 5 -16 -5 -18 -107 -18 -85 0 -111 3 -107 13 2 6 26 85 53 174
27 90 51 163 55 163 3 0 27 -71 53 -157z"/>
<path d="M2490 1510 l0 -500 155 0 155 0 0 500 0 500 -155 0 -155 0 0 -500z"/>
<path d="M3030 1510 l0 -500 395 0 395 0 0 125 0 125 -240 0 -240 0 0 375 0
375 -155 0 -155 0 0 -500z"/>
<path d="M4229 1983 c-6 -16 -91 -241 -189 -500 l-178 -473 158 0 159 0 16 58
c9 31 20 68 24 82 l8 25 176 3 176 2 26 -85 26 -85 160 0 c125 0 160 3 157 13
-3 6 -87 231 -188 500 l-183 487 -169 0 -168 0 -11 -27z m230 -405 c28 -92 51
-172 51 -177 0 -7 -38 -11 -105 -11 -70 0 -105 4 -105 11 0 6 21 79 46 162 25
84 48 160 51 170 2 10 6 17 8 15 1 -2 25 -78 54 -170z"/>
<path d="M1229 877 c-118 -34 -197 -140 -207 -280 -14 -198 109 -347 288 -347
126 0 215 53 267 158 25 51 28 68 28 157 0 83 -4 109 -24 152 -26 58 -94 127
-147 149 -50 21 -151 26 -205 11z m181 -84 c42 -22 59 -40 84 -83 28 -50 31
-63 31 -145 0 -77 -4 -96 -25 -134 -14 -24 -42 -58 -63 -75 -32 -26 -48 -31
-106 -34 -130 -8 -208 63 -226 204 -9 65 9 159 39 205 31 46 114 89 172 89 26
0 61 -10 94 -27z"/>
<path d="M2845 881 c-153 -43 -239 -181 -221 -355 17 -160 120 -264 272 -274
127 -8 226 45 282 152 25 46 27 61 27 161 0 91 -4 118 -21 156 -27 58 -85 116
-140 141 -49 21 -154 31 -199 19z m139 -73 c146 -44 198 -290 88 -419 -44 -51
-84 -69 -157 -69 -67 0 -123 26 -159 72 -38 51 -48 86 -48 176 0 69 4 91 26
137 47 94 144 134 250 103z"/>
<path d="M4800 876 c-65 -17 -116 -51 -149 -100 -109 -159 -61 -423 92 -503
42 -22 165 -29 222 -13 24 7 63 28 86 48 41 36 95 130 81 144 -4 3 -23 9 -43
13 -34 6 -37 5 -42 -23 -7 -36 -49 -88 -88 -107 -15 -8 -54 -15 -87 -15 -123
0 -194 87 -196 240 0 41 6 95 13 120 24 81 106 140 196 140 47 -1 113 -36 133
-70 33 -61 34 -61 75 -49 l38 10 -28 51 c-58 106 -173 150 -303 114z"/>
<path d="M5556 879 c-62 -15 -107 -48 -127 -93 -23 -51 -24 -88 -2 -133 23
-50 72 -77 205 -113 132 -36 168 -60 168 -110 0 -46 -16 -69 -63 -91 -104 -47
-242 -1 -266 87 -6 24 -13 29 -44 32 -34 3 -37 1 -37 -23 0 -67 62 -144 138
-170 53 -18 160 -20 217 -4 52 14 122 86 131 134 13 73 -21 147 -86 180 -16 8
-79 28 -142 45 -124 34 -158 56 -158 103 0 120 259 126 285 6 6 -26 11 -29 46
-29 31 0 39 4 39 18 -1 26 -34 95 -56 114 -50 44 -170 67 -248 47z"/>
<path d="M248 874 c-5 -4 -8 -144 -8 -311 l0 -303 45 0 45 0 0 135 0 135 73 0
c52 0 80 -5 102 -18 17 -11 62 -68 105 -135 l75 -116 52 -1 53 0 -57 88 c-77
119 -103 152 -137 173 l-29 18 29 7 c86 20 144 87 144 165 0 55 -39 120 -85
143 -35 18 -63 21 -220 24 -99 2 -183 1 -187 -4z m369 -90 c56 -42 52 -112
-10 -158 -23 -17 -46 -21 -152 -24 l-125 -4 0 107 0 107 129 -4 c113 -3 133
-6 158 -24z"/>
<path d="M1890 571 l0 -311 153 0 c83 0 170 5 192 11 79 22 135 115 120 198
-7 35 -64 102 -95 113 -11 4 -7 11 17 32 60 51 67 136 16 196 -47 57 -73 64
-245 68 l-158 4 0 -311z m259 230 c96 -14 132 -91 72 -152 -29 -29 -31 -29
-140 -29 l-111 0 0 88 c0 49 3 92 7 95 8 9 103 8 172 -2z m97 -294 c17 -20 24
-40 24 -68 0 -87 -39 -109 -195 -109 l-105 0 0 106 0 106 126 -4 c124 -3 126
-3 150 -31z"/>
<path d="M3450 845 l0 -35 100 0 100 0 0 -275 0 -275 40 0 40 0 2 273 3 272
103 3 102 3 0 34 0 35 -245 0 -245 0 0 -35z"/>
<path d="M4210 570 l0 -310 40 0 40 0 0 310 0 310 -40 0 -40 0 0 -310z"/>
</g>
</svg>
